<!DOCTYPE svg PUBLIC "-//W3C//DTD SVG 20010904//EN" "http://www.w3.org/TR/2001/REC-SVG-20010904/DTD/svg10.dtd">
<svg version="1.0" xmlns="http://www.w3.org/2000/svg" width="1424px" height="282px" viewBox="0 0 14240 2820" preserveAspectRatio="xMidYMid meet">
<g id="layer101" fill="#000000" stroke="none">
 <path d="M5218 2697 c-231 -80 -359 -299 -346 -591 13 -276 159 -485 388 -557 91 -29 259 -29 350 0 67 21 167 81 176 106 5 12 -62 135 -73 135 -2 0 -22 -14 -45 -30 -87 -63 -251 -81 -361 -40 -170 64 -272 277 -239 500 22 157 100 265 221 311 48 18 72 20 166 17 123 -4 188 -26 258 -88 l37 -32 29 64 c47 106 48 99 -15 141 -93 61 -167 79 -334 84 -132 3 -151 1 -212 -20z"/>
 <path d="M9401 2704 c-184 -49 -329 -208 -372 -409 -19 -86 -16 -275 5 -355 53 -198 196 -346 382 -395 77 -21 250 -21 327 -1 251 68 397 282 397 583 -1 292 -154 513 -401 578 -70 19 -266 18 -338 -1z m313 -174 c103 -39 178 -129 211 -255 19 -73 19 -232 1 -301 -47 -175 -172 -275 -345 -275 -87 0 -125 10 -185 45 -204 119 -257 478 -100 683 29 39 100 89 152 108 59 22 201 19 266 -5z"/>
 <path d="M11087 2701 l-47 -6 -280 -420 -280 -420 0 423 0 422 -95 0 -95 0 0 -580 0 -580 98 0 99 0 291 437 292 438 0 -437 0 -438 90 0 90 0 0 580 0 580 -37 0 c-21 0 -47 2 -58 4 -11 2 -41 0 -68 -3z"/>
 <path d="M2120 2118 l0 -581 218 6 c240 8 320 20 408 65 112 57 164 140 172 273 6 107 -15 173 -77 241 -89 98 -208 138 -407 138 -102 0 -123 3 -128 16 -3 9 -6 108 -6 220 l0 204 -90 0 -90 0 0 -582z m517 -56 c66 -35 88 -74 88 -159 0 -83 -17 -114 -82 -151 -41 -22 -169 -41 -285 -42 l-48 0 0 191 0 191 143 -4 c123 -3 148 -6 184 -26z"/>
 <path d="M3060 2120 l0 -580 355 0 355 0 0 85 0 85 -260 0 -260 0 0 155 0 155 245 0 245 0 0 85 0 85 -245 0 -245 0 0 170 0 170 270 0 270 0 0 85 0 85 -365 0 -365 0 0 -580z"/>
 <path d="M3950 2118 l0 -581 238 7 c317 8 403 28 485 110 50 49 71 101 75 184 7 124 -33 213 -120 269 -24 15 -45 28 -47 30 -2 1 8 16 23 34 38 45 48 66 138 297 44 114 82 213 85 220 4 10 -17 12 -97 10 l-103 -3 -63 -175 c-110 -301 -106 -297 -298 -307 l-126 -6 0 246 0 247 -95 0 -95 0 0 -582z m528 -108 c62 -35 85 -78 80 -146 -9 -111 -63 -140 -278 -150 l-140 -7 0 167 0 168 148 -4 c134 -3 151 -5 190 -28z"/>
 <path d="M5960 2120 l0 -580 355 0 355 0 0 85 0 85 -260 0 -260 0 0 155 0 155 245 0 245 0 0 85 0 85 -245 0 -245 0 0 170 0 170 270 0 270 0 0 85 0 85 -365 0 -365 0 0 -580z"/>
 <path d="M6850 2118 l0 -581 218 6 c240 8 320 20 408 65 112 57 164 140 172 273 6 107 -15 173 -77 241 -89 98 -208 138 -407 138 -102 0 -123 3 -128 16 -3 9 -6 108 -6 220 l0 204 -90 0 -90 0 0 -582z m517 -56 c66 -35 88 -74 88 -159 0 -83 -17 -114 -82 -151 -41 -22 -169 -41 -285 -42 l-48 0 0 191 0 191 143 -4 c123 -3 148 -6 184 -26z"/>
 <path d="M8010 2205 l0 -495 -175 0 -175 0 0 -85 0 -85 445 0 445 0 0 85 0 85 -175 0 -175 0 0 495 0 495 -95 0 -95 0 0 -495z"/>
 <path d="M8660 2120 l0 -580 95 0 95 0 0 580 0 580 -95 0 -95 0 0 -580z"/>
 <path d="M243 2661 c-53 -18 -133 -65 -133 -79 0 -14 40 -72 49 -72 6 0 13 5 16 10 4 6 30 22 58 37 41 21 70 27 138 31 111 6 174 -14 234 -72 81 -77 85 -189 12 -273 -40 -45 -96 -71 -173 -78 -32 -3 -78 -8 -101 -11 l-43 -5 0 -43 0 -43 68 -2 c124 -3 212 -43 247 -112 19 -36 19 -132 1 -167 -36 -69 -103 -102 -209 -102 -85 0 -152 18 -208 55 -44 29 -52 27 -75 -17 -15 -30 -15 -32 2 -46 11 -8 48 -28 84 -46 63 -30 70 -31 195 -31 145 0 187 12 259 75 57 50 80 102 80 185 1 120 -53 197 -166 236 -47 15 -48 17 -23 23 49 12 112 46 144 78 54 53 75 104 75 183 1 133 -73 232 -210 281 -84 31 -240 33 -321 5z"/>
 <path d="M1020 2125 l0 -537 243 4 c222 4 249 7 324 30 236 71 334 216 335 493 2 260 -107 422 -342 511 -73 27 -81 28 -317 32 l-243 4 0 -537z m477 431 c163 -43 269 -151 303 -307 18 -83 8 -249 -19 -321 -45 -118 -157 -202 -306 -232 -38 -8 -132 -17 -207 -21 l-138 -7 0 458 0 457 158 -7 c86 -3 181 -13 209 -20z"/>
 <path d="M11500 2125 l0 -535 55 0 55 0 0 495 0 495 260 0 260 0 0 40 0 40 -315 0 -315 0 0 -535z"/>
 <path d="M12278 2547 c26 -62 126 -303 222 -535 l175 -422 64 2 65 3 218 529 c120 290 218 530 218 532 0 2 -26 4 -57 4 l-58 0 -65 -155 -65 -155 -261 0 -262 0 -63 155 -63 155 -58 0 -57 0 47 -113z m666 -334 c-14 -38 -61 -165 -105 -283 -44 -118 -85 -226 -91 -240 -9 -23 -12 -18 -42 65 -18 50 -72 186 -119 304 -48 117 -87 215 -87 217 0 2 106 4 235 4 l235 0 -26 -67z"/>
 <path d="M13410 2124 l0 -536 233 4 c212 4 237 6 290 27 111 44 156 107 157 219 0 34 -7 79 -15 100 -22 51 -81 110 -138 137 l-49 23 40 7 c64 11 142 63 177 119 28 46 30 57 30 140 0 113 -25 172 -99 227 -83 63 -118 69 -387 69 l-239 0 0 -536z m473 432 c62 -18 115 -60 133 -102 22 -52 18 -134 -9 -185 -36 -68 -101 -97 -247 -109 -63 -5 -145 -10 -182 -10 l-68 0 0 217 0 216 163 -6 c95 -4 182 -12 210 -21z m-56 -511 c105 -32 153 -90 153 -188 0 -67 -27 -112 -89 -146 -43 -24 -162 -40 -308 -41 l-63 0 0 201 0 202 131 -7 c72 -4 151 -14 176 -21z"/>
 <path d="M6615 1102 c-246 -84 -396 -307 -382 -567 13 -251 178 -457 417 -520 72 -19 221 -19 294 0 185 48 337 192 397 377 33 103 33 243 0 346 -60 183 -213 329 -397 377 -96 25 -234 20 -329 -13z m326 -42 c170 -53 288 -167 347 -334 33 -93 34 -220 3 -316 -69 -214 -267 -360 -491 -360 -149 0 -255 45 -365 155 -169 168 -201 392 -88 607 62 118 202 227 329 257 72 17 197 12 265 -9z"/>
 <path d="M6705 817 c-98 -39 -105 -55 -105 -254 0 -138 3 -162 19 -189 61 -99 283 -100 355 -1 19 26 21 43 21 192 0 187 -5 202 -85 243 -50 25 -152 29 -205 9z m175 -53 c61 -24 70 -51 70 -198 0 -76 -5 -135 -12 -151 -36 -79 -220 -88 -272 -14 -24 34 -24 294 0 328 35 49 136 66 214 35z"/>
 <path d="M9071 1114 c-88 -23 -171 -74 -247 -149 -115 -113 -166 -236 -166 -400 0 -163 51 -286 166 -401 114 -115 235 -164 399 -164 167 0 287 49 404 166 113 113 163 237 163 402 0 258 -171 481 -420 547 -70 19 -228 18 -299 -1z m284 -49 c88 -23 152 -62 231 -140 105 -104 154 -219 154 -360 0 -141 -49 -256 -154 -361 -108 -108 -215 -154 -361 -154 -286 0 -516 229 -516 515 0 336 321 584 646 500z"/>
 <path d="M9126 747 c-22 -12 -53 -39 -70 -60 -29 -36 -31 -44 -31 -122 0 -78 2 -86 31 -122 46 -57 98 -83 167 -83 91 0 158 43 192 122 31 76 10 183 -46 235 -61 56 -174 70 -243 30z m175 -50 c105 -71 105 -193 -1 -265 -44 -30 -121 -27 -167 6 -90 64 -79 217 19 265 48 24 109 21 149 -6z"/>
 <path d="M10536 1115 c-174 -48 -315 -177 -383 -352 -24 -60 -27 -82 -27 -193 0 -105 3 -135 22 -190 64 -178 212 -317 392 -365 71 -19 220 -19 293 0 174 45 336 193 391 358 43 129 42 264 -4 395 -57 161 -213 302 -386 347 -71 18 -230 18 -298 0z m295 -55 c170 -53 288 -167 347 -334 35 -100 35 -222 0 -323 -75 -212 -271 -353 -487 -353 -151 1 -259 46 -366 154 -164 165 -200 385 -98 596 32 67 148 185 219 223 112 59 267 74 385 37z"/>
 <path d="M10605 736 c-89 -40 -129 -157 -86 -252 29 -64 80 -97 156 -102 53 -4 70 0 105 19 121 68 125 254 7 324 -50 29 -131 34 -182 11z"/>
 <path d="M7965 726 c-131 -58 -140 -247 -15 -313 102 -54 217 -5 251 106 40 134 -109 264 -236 207z"/>
 <path d="M126 608 c-20 -28 -20 -58 0 -86 l15 -22 2898 0 c2640 0 2900 1 2912 16 20 24 16 84 -6 100 -16 12 -465 14 -2911 14 l-2893 0 -15 -22z"/>
 <path d="M11516 614 c-19 -18 -21 -85 -4 -102 9 -9 321 -12 1344 -12 1480 0 1358 -6 1358 67 0 68 97 63 -1360 63 -1189 0 -1324 -2 -1338 -16z"/>
 </g>

</svg>